<svg version="1.1" id="Layer_1" xmlns="http://www.w3.org/2000/svg" xmlns:xlink="http://www.w3.org/1999/xlink" x="0px" y="0px"
	 width="100%" viewBox="0 0 896 896" enable-background="new 0 0 896 896" xml:space="preserve">
<path fill="#000000" opacity="1.000000" stroke="none" 
	d="
M776.205322,671.179016 
	C750.700378,708.596008 719.710266,740.183716 683.356750,766.527710 
	C649.217773,791.266846 612.085876,810.122192 571.782593,822.538696 
	C545.150513,830.743469 518.002075,836.405273 490.119690,838.464783 
	C476.156860,839.496094 462.216675,840.680115 448.215942,840.163391 
	C420.552582,839.142273 393.183502,835.940674 366.194275,829.479492 
	C307.314056,815.383850 254.651855,788.933777 208.168610,750.252319 
	C163.134552,712.776917 128.581116,667.183289 103.963547,614.054199 
	C87.527809,578.582947 76.843620,541.406799 71.943535,502.643646 
	C68.258148,473.489594 67.756172,444.284607 70.541969,414.937927 
	C75.212914,365.732330 88.871407,319.191589 111.384224,275.373230 
	C141.264801,217.214417 183.523636,169.738480 237.346542,132.549561 
	C272.911469,107.975990 311.657135,90.268517 353.255829,78.804985 
	C391.060364,68.387016 429.652496,63.636280 468.829224,65.086006 
	C511.886292,66.679337 553.723633,74.815422 594.042725,90.371353 
	C663.557556,117.191612 720.955444,160.148376 765.788147,219.626678 
	C805.246277,271.974609 829.788391,330.698975 839.419922,395.596985 
	C844.782898,431.732849 845.015991,467.953583 840.236572,504.115845 
	C832.225708,564.727783 810.925964,620.360901 776.205322,671.179016 
M719.828979,695.332703 
	C724.737671,689.668518 729.823792,684.147461 734.526428,678.317078 
	C767.091736,637.942383 790.219055,592.770996 803.207642,542.489929 
	C812.733459,505.613770 816.427063,468.191223 813.923889,430.149292 
	C811.746338,397.055359 805.429077,364.832031 794.360107,333.551666 
	C771.903381,270.090088 734.490295,217.013733 682.361511,174.625641 
	C621.366089,125.027664 551.200012,98.442535 472.709930,94.527618 
	C429.918793,92.393288 387.865936,97.716591 347.095093,111.130814 
	C272.505981,135.671722 211.595322,179.253616 165.459213,243.048630 
	C135.162949,284.940979 114.873688,331.190979 104.721191,381.943787 
	C96.099609,425.043457 95.500008,468.202881 102.467323,511.544464 
	C110.245003,559.926941 127.646996,604.691711 154.035034,645.825256 
	C186.965042,697.156250 230.376358,737.502808 283.782043,767.075439 
	C330.308533,792.838745 380.258484,806.939514 433.151276,810.553894 
	C458.289246,812.271729 483.475739,811.187805 508.406555,807.436340 
	C543.664307,802.130859 577.512573,792.019043 609.786987,776.631409 
	C651.531616,756.728699 687.834106,729.564697 719.828979,695.332703 
z"/>
<path fill="#000000" opacity="1.000000" stroke="none" 
	d="
M705.754272,596.662109 
	C686.141602,643.939392 653.573425,679.333252 610.430298,705.521484 
	C574.623718,727.256287 535.769958,741.265198 495.351501,751.369751 
	C486.312439,753.629517 477.228577,755.711731 468.151367,757.815430 
	C466.403015,758.220642 464.589539,758.344543 463.115234,758.554260 
	C461.415436,756.973572 461.839935,755.451538 462.126648,754.007446 
	C463.357361,747.808838 464.622803,741.617065 465.902344,735.428345 
	C466.416290,732.942566 467.516327,730.730286 469.076904,728.716614 
	C486.259827,706.544067 495.142914,680.981750 499.608215,653.643433 
	C500.868835,645.925598 501.944611,638.177307 501.971588,630.323425 
	C501.981995,627.286316 502.810059,624.439392 504.124939,621.673218 
	C519.713623,588.877991 539.122498,558.472900 561.414978,529.862671 
	C562.493713,528.478210 564.099670,527.330505 563.781616,523.967651 
	C539.629456,537.829895 520.272095,556.458313 501.776550,576.059204 
	C498.931763,573.700928 499.537292,570.919617 499.156158,568.609985 
	C492.834564,530.302856 474.943268,497.707733 450.063446,468.520355 
	C444.653381,462.173645 439.057983,455.963348 432.772278,450.512390 
	C429.002075,447.242889 428.812531,445.026001 432.146759,441.254456 
	C446.984436,424.470978 463.215759,409.216827 480.969696,395.578583 
	C528.509155,359.059662 581.738831,334.143127 639.384338,318.435211 
	C664.310242,311.643005 689.726562,307.247101 715.466125,304.852051 
	C721.872131,304.256012 722.823059,304.873535 723.044739,310.225983 
	C724.842651,353.624359 728.789124,396.918396 729.215820,440.384827 
	C729.589294,478.424347 727.786865,516.267151 719.298462,553.505249 
	C715.969543,568.108887 711.752747,582.476990 705.754272,596.662109 
z"/>
<path fill="#000000" opacity="1.000000" stroke="none" 
	d="
M463.032654,536.089722 
	C472.431671,556.947876 476.029327,578.708191 477.091553,600.950195 
	C478.266083,625.544006 476.515106,649.883972 469.307678,673.601685 
	C464.054321,690.888855 455.806000,706.526123 443.517365,719.900146 
	C442.536591,720.967529 441.770996,722.398804 439.526947,722.374268 
	C437.118042,718.414246 436.094177,713.688538 434.572815,709.210388 
	C422.325317,673.160095 405.979675,639.245178 382.543793,609.021790 
	C366.911591,588.862122 348.611481,571.490417 327.569458,557.042603 
	C325.975800,555.948303 324.539215,554.353394 321.875519,554.625183 
	C321.700928,557.245483 323.685455,558.747192 324.990509,560.419189 
	C353.468018,596.904175 374.509583,637.354614 389.216064,681.142273 
	C395.899719,701.042480 401.056122,721.366150 404.743561,742.043823 
	C405.626221,746.993408 404.733154,747.911438 399.860046,746.846436 
	C359.010834,737.918945 319.320953,725.862488 283.068146,704.246826 
	C232.949554,674.363708 202.633469,630.560181 190.721161,573.712524 
	C183.505692,539.278992 182.406906,504.453308 183.484009,469.399323 
	C184.235916,444.928741 186.117004,420.527374 187.050095,396.071381 
	C187.364670,387.826630 187.284637,379.440186 189.262848,370.835144 
	C197.779724,370.553101 206.147629,371.677582 214.483231,372.943390 
	C256.632141,379.344025 296.857147,391.918457 334.697357,411.583038 
	C383.081757,436.727051 425.035889,469.306976 453.383301,517.046509 
	C456.944794,523.044495 459.745789,529.494080 463.032654,536.089722 
z"/>
</svg>